<svg width="19" height="13" viewBox="0 0 19 13" fill="none" xmlns="http://www.w3.org/2000/svg">
<path d="M3.95833 11.9166C3.52292 11.9166 3.15017 11.8106 2.8401 11.5984C2.53003 11.3863 2.375 11.1312 2.375 10.8333V3.24998C2.375 2.95206 2.53003 2.69703 2.8401 2.48488C3.15017 2.27272 3.52292 2.16665 3.95833 2.16665H4.75V1.08331H6.33333V2.16665H12.6667V1.08331H14.25V2.16665H15.0417C15.4771 2.16665 15.8498 2.27272 16.1599 2.48488C16.47 2.69703 16.625 2.95206 16.625 3.24998V10.8333C16.625 11.1312 16.47 11.3863 16.1599 11.5984C15.8498 11.8106 15.4771 11.9166 15.0417 11.9166H3.95833ZM3.95833 10.8333H15.0417V5.41665H3.95833V10.8333ZM3.95833 4.33331H15.0417V3.24998H3.95833V4.33331Z" fill="black"/>
</svg>
