<svg width="29" height="29" viewBox="0 0 29 29" fill="none" xmlns="http://www.w3.org/2000/svg">
<path d="M19.9097 3.62978C20.1115 3.6479 20.1997 3.8944 20.0547 4.0382L10.0014 14.0915C9.88783 14.2052 9.80651 14.347 9.76577 14.5024L8.55744 19.1303C8.51755 19.2832 8.51835 19.4439 8.55977 19.5965C8.60119 19.749 8.68178 19.888 8.79354 19.9998C8.9053 20.1116 9.04435 20.1922 9.19688 20.2336C9.34941 20.275 9.51012 20.2758 9.66306 20.2359L14.2898 19.0276C14.4453 18.9865 14.5871 18.9047 14.7006 18.7907L24.8965 8.59482C24.9284 8.56207 24.969 8.53915 25.0136 8.52876C25.0581 8.51838 25.1046 8.52097 25.1477 8.53622C25.1908 8.55148 25.2287 8.57876 25.2567 8.61484C25.2848 8.65093 25.302 8.6943 25.3061 8.73982C25.7306 12.7873 25.7062 16.8692 25.2336 20.9114C24.9642 23.2132 23.1142 25.0197 20.8208 25.2771C16.6202 25.7425 12.381 25.7425 8.18044 25.2771C5.88581 25.0197 4.03585 23.2132 3.7664 20.9114C3.26854 16.652 3.26854 12.3491 3.7664 8.08974C4.03585 5.78665 5.88581 3.9802 8.18044 3.72403C12.0767 3.29214 16.007 3.26056 19.9097 3.62978Z" fill="#222831"/>
<path d="M21.5361 5.11975C21.5642 5.09162 21.5975 5.0693 21.6342 5.05407C21.6709 5.03884 21.7103 5.03101 21.75 5.03101C21.7897 5.03101 21.8291 5.03884 21.8658 5.05407C21.9025 5.0693 21.9358 5.09162 21.9639 5.11975L23.6725 6.82955C23.7289 6.88617 23.7606 6.96286 23.7606 7.04282C23.7606 7.12277 23.7289 7.19946 23.6725 7.25609L13.6518 17.2792C13.6137 17.3172 13.5661 17.3443 13.514 17.3578L11.2013 17.9619C11.1503 17.9752 11.0967 17.9749 11.0459 17.9611C10.995 17.9473 10.9487 17.9205 10.9114 17.8832C10.8742 17.846 10.8473 17.7996 10.8335 17.7488C10.8197 17.6979 10.8194 17.6444 10.8327 17.5934L11.4369 15.2806C11.4503 15.2285 11.4774 15.181 11.5154 15.1429L21.5361 5.11975Z" fill="#F24822"/>
</svg>
