<svg width="29" height="29" viewBox="0 0 29 29" fill="none" xmlns="http://www.w3.org/2000/svg">
<path d="M24.4688 7.25H20.8438V4.98438C20.8438 3.98467 20.031 3.17188 19.0313 3.17188H9.96875C8.96904 3.17188 8.15625 3.98467 8.15625 4.98438V7.25H4.53125C4.02998 7.25 3.625 7.65498 3.625 8.15625V9.0625C3.625 9.18711 3.72695 9.28906 3.85156 9.28906H5.56211L6.26162 24.1006C6.30693 25.0663 7.10557 25.8281 8.07129 25.8281H20.9287C21.8973 25.8281 22.6931 25.0691 22.7384 24.1006L23.4379 9.28906H25.1484C25.273 9.28906 25.375 9.18711 25.375 9.0625V8.15625C25.375 7.65498 24.97 7.25 24.4688 7.25ZM18.8047 7.25H10.1953V5.21094H18.8047V7.25Z" fill="#222831"/>
</svg>
